<svg width="63" height="62" viewBox="0 0 63 62" fill="none" xmlns="http://www.w3.org/2000/svg">
<rect x="0.916504" width="62" height="62" rx="31" fill="#0A8C99"/>
<path d="M44.257 24.8809C44.257 25.1849 44.257 25.428 44.257 25.732C44.257 34.1819 37.8739 43.8477 26.1413 43.8477C22.4938 43.8477 19.1504 42.8142 16.354 40.9905C16.8403 41.0513 17.3266 41.1121 17.8737 41.1121C20.8525 41.1121 23.5881 40.0786 25.7766 38.3765C22.9802 38.3157 20.6093 36.492 19.8191 33.9387C20.2446 33.9995 20.6093 34.0603 21.0349 34.0603C21.582 34.0603 22.1899 33.9387 22.6762 33.8172C19.7583 33.2092 17.5698 30.656 17.5698 27.5557V27.4949C18.4209 27.9812 19.4543 28.2244 20.4878 28.2852C18.7248 27.1302 17.6306 25.1849 17.6306 22.9964C17.6306 21.7806 17.9345 20.6863 18.4817 19.7745C21.6428 23.6043 26.3845 26.1575 31.6733 26.4615C31.5517 25.9751 31.4909 25.4888 31.4909 25.0025C31.4909 21.4766 34.3481 18.6194 37.8739 18.6194C39.6977 18.6194 41.339 19.3489 42.5548 20.6255C43.953 20.3216 45.3512 19.7745 46.567 19.045C46.0807 20.5647 45.1081 21.7806 43.7707 22.5708C45.0473 22.4493 46.3239 22.0845 47.4181 21.5982C46.567 22.8748 45.4728 23.969 44.257 24.8809Z" fill="white"/>
</svg>
