<svg width="63" height="62" viewBox="0 0 63 62" fill="none" xmlns="http://www.w3.org/2000/svg">
<rect x="0.208008" width="62" height="62" rx="31" fill="#0A8C99"/>
<path d="M23.6699 42.875H18.0163V24.6985H23.6699V42.875ZM20.8127 22.2669C19.0498 22.2669 17.5908 20.7471 17.5908 18.9234C17.5908 17.1605 19.0498 15.7015 20.8127 15.7015C22.6364 15.7015 24.0954 17.1605 24.0954 18.9234C24.0954 20.7471 22.6364 22.2669 20.8127 22.2669ZM44.7643 42.875H39.1715V34.0603C39.1715 31.9326 39.1108 29.2578 36.1928 29.2578C33.2748 29.2578 32.8493 31.5071 32.8493 33.8779V42.875H27.1957V24.6985H32.6061V27.191H32.6669C33.4572 25.7928 35.2809 24.273 38.0165 24.273C43.7309 24.273 44.8251 28.042 44.8251 32.9053V42.875H44.7643Z" fill="white"/>
</svg>
