<svg width="28" height="21" viewBox="0 0 28 21" fill="none" xmlns="http://www.w3.org/2000/svg">
<path d="M3.48657 0.200012H24.5803C26.2104 0.200012 27.5334 1.50668 27.5334 3.11668V17.2833C27.5334 18.0569 27.2223 18.7988 26.6685 19.3457C26.1147 19.8927 25.3635 20.2 24.5803 20.2H3.48657C2.70335 20.2 1.95222 19.8927 1.3984 19.3457C0.844579 18.7988 0.533447 18.0569 0.533447 17.2833L0.533447 3.11668C0.533447 1.50668 1.85645 0.200012 3.48657 0.200012ZM3.0647 17.285C3.0647 17.515 3.2537 17.7017 3.48657 17.7017H24.5803C24.6922 17.7017 24.7995 17.6578 24.8786 17.5796C24.9578 17.5015 25.0022 17.3955 25.0022 17.285V6.54835L14.6747 12.5283C14.4803 12.6412 14.2589 12.7007 14.0334 12.7007C13.808 12.7007 13.5866 12.6412 13.3922 12.5283L3.0647 6.54835V17.285ZM25.0022 3.65001V3.11668C25.0022 3.00617 24.9578 2.90019 24.8786 2.82205C24.7995 2.74391 24.6922 2.70001 24.5803 2.70001H3.48657C3.37468 2.70001 3.26738 2.74391 3.18826 2.82205C3.10914 2.90019 3.0647 3.00617 3.0647 3.11668V3.65001L14.0334 10L25.0022 3.65001Z" fill="black"/>
</svg>
