<svg width="31" height="25" viewBox="0 0 31 25" fill="none" xmlns="http://www.w3.org/2000/svg">
<path d="M2 5C2 4.20435 2.31607 3.44129 2.87868 2.87868C3.44129 2.31607 4.20435 2 5 2H26C26.7956 2 27.5587 2.31607 28.1213 2.87868C28.6839 3.44129 29 4.20435 29 5V20C29 20.7956 28.6839 21.5587 28.1213 22.1213C27.5587 22.6839 26.7956 23 26 23H5C4.20435 23 3.44129 22.6839 2.87868 22.1213C2.31607 21.5587 2 20.7956 2 20V5Z" stroke="#FDD76A" stroke-width="3" stroke-linecap="round" stroke-linejoin="round"/>
<path d="M2 5L15.5 14L29 5" stroke="#FDD76A" stroke-width="3" stroke-linecap="round" stroke-linejoin="round"/>
</svg>
