<svg width="160" height="126" viewBox="0 0 160 126" fill="none" xmlns="http://www.w3.org/2000/svg">
<path d="M96.9857 0.0881805C94.9439 0.298683 7.0055 32.8203 4.85809 34.1184C3.44994 34.9955 1.79538 36.8549 0.809681 38.7493C0.140814 39.9772 0 40.7841 0 43.5556V46.8885L9.61056 72.4989C14.9263 86.567 19.6436 99.0214 20.1364 100.144C21.2981 102.705 23.7624 104.985 26.5083 106.003C28.0924 106.634 29.0429 106.74 31.1551 106.634C33.549 106.494 34.2882 106.248 39.0759 103.968L44.3564 101.442L44.5325 109.792C44.7085 117.37 44.7789 118.247 45.4829 119.755C46.5391 122.071 49.0737 124.386 51.4323 125.263C53.3333 126 53.7558 126 102.266 126C150.988 126 151.164 126 153.135 125.263C155.74 124.281 158.275 121.755 159.261 119.159C160 117.229 160 116.773 160 86.7074C160 56.7818 160 56.1854 159.261 54.291C158.381 51.9404 156.057 49.4145 153.734 48.362C152.15 47.6252 151.516 47.5902 138.561 47.4147L125.043 47.2393L116.876 26.6809C112.405 15.3842 108.392 5.56109 107.934 4.85943C105.822 1.42133 101.527 -0.438057 96.9857 0.0881805ZM100.999 6.68373C101.562 6.99947 102.301 7.66605 102.689 8.1572C103.217 8.85886 118.46 46.6429 118.46 47.2393C118.46 47.3446 103.815 47.4147 85.8966 47.4147C53.7558 47.4147 53.3333 47.4147 51.3971 48.1515C48.7921 49.1338 46.2574 51.6598 45.2717 54.2559C44.5677 56.1503 44.5325 56.8169 44.5325 75.4458V94.6711L38.4774 97.583C35.1331 99.1617 31.7536 100.565 30.9439 100.635C29.1837 100.846 27.2123 100.039 26.2618 98.6706C25.1705 97.162 5.80858 45.0642 5.80858 43.6609C5.80858 42.1173 6.9703 39.9772 8.23762 39.2405C9.08251 38.7493 86.4598 9.80609 94.8735 6.85915C98.3234 5.63125 99.1331 5.63125 100.999 6.68373ZM149.58 53.3788C152.431 54.0103 153.875 55.8697 154.227 59.2727L154.473 61.4478H102.266H50.0594L50.3058 59.2727C50.6227 55.9749 52.1364 54.0103 54.7767 53.3788C56.4664 52.9929 147.89 52.9578 149.58 53.3788ZM154.367 72.6743V78.2875H102.266H50.165V72.6743V67.0611H102.266H154.367V72.6743ZM154.297 99.9336C154.191 115.265 154.156 116.072 153.487 117.194C152.572 118.738 151.305 119.65 149.58 120.036C147.749 120.457 56.7833 120.457 54.9527 120.036C53.2277 119.65 51.9604 118.738 51.0451 117.194C50.3762 116.072 50.341 115.265 50.2354 99.9336L50.1298 83.9008H102.266H154.403L154.297 99.9336Z" fill="#FFD56D"/>
<path d="M56.7 91.75C56.245 92.2375 56 92.9875 56 94C56 95.0125 56.245 95.7625 56.7 96.25C57.365 96.9625 57.855 97 70 97C82.145 97 82.635 96.9625 83.3 96.25C83.755 95.7625 84 95.0125 84 94C84 92.9875 83.755 92.2375 83.3 91.75C82.635 91.0375 82.145 91 70 91C57.855 91 57.365 91.0375 56.7 91.75Z" fill="#FFD56D"/>
</svg>
