<svg width="99" height="99" viewBox="0 0 99 99" fill="none" xmlns="http://www.w3.org/2000/svg">
<path d="M45.7822 0.339783C42.8777 1.11431 40.1281 2.87637 38.2499 5.16123C36.604 7.15565 35.6164 9.34369 34.9775 12.3837L34.8806 12.9259H23.9403H13V23.9629V35H14.5491H16.0981V25.512V16.024H25.47H34.8613L35.0743 17.1277C35.8294 21.0391 38.0756 24.5051 41.2899 26.6932C43.1294 27.9324 44.4462 28.4359 47.5249 29.0942L48.0477 29.191V32.0955V35H49.5968H51.1265L51.1846 32.0568L51.2427 29.1136L52.5013 28.8812C54.1279 28.5714 55.6188 28.0099 57.0711 27.1385C58.9106 26.0348 58.8912 26.0929 57.9231 24.8343C57.4584 24.2534 57.013 23.7112 56.9355 23.6531C56.8387 23.6144 56.2966 23.8661 55.735 24.2534C54.244 25.2409 52.1334 25.9186 50.2358 26.0542C44.6592 26.4027 39.5472 22.5494 38.2499 17.0503C37.8432 15.2882 37.9788 12.4999 38.5597 10.8153C39.5472 8.00763 41.8902 5.43232 44.6204 4.15434C46.4406 3.283 47.5443 3.03127 49.5194 3.03127C52.6562 3.03127 55.3671 4.1737 57.6326 6.43921C59.9175 8.70471 61.0212 11.3381 61.0406 14.4943C61.0406 16.9341 60.3435 19.277 59.0655 21.0972C58.8525 21.3683 58.6976 21.6781 58.6976 21.7943C58.6976 21.8911 59.2204 22.3752 59.8401 22.8592L60.9825 23.7693L61.4859 23.0916C62.6671 21.5619 64.1194 17.8248 64.1194 16.3726C64.1194 16.0434 64.526 16.024 73.5106 16.024H82.9019V25.512V35H84.4509H86V23.9629V12.9259H75.0984H64.1968L63.887 11.5124C63.1899 8.37553 61.7958 5.9164 59.4915 3.78644C57.8069 2.23738 56.4515 1.42412 54.3021 0.668957C52.7724 0.126785 52.3271 0.0686951 49.8873 0.0106049C47.6798 -0.0281219 46.9247 0.0299683 45.7822 0.339783Z" fill="#FFBC01"/>
<path d="M51.0563 12.7824L47.3438 16.584L45.75 14.952L44.1562 13.32L43.0875 14.4336L42 15.528L44.6813 18.2544L47.3438 21L52.1625 16.0656L57 11.112L55.9688 10.056C55.4063 9.48 54.9 9 54.8438 9C54.7875 9 53.0813 10.7088 51.0563 12.7824Z" fill="#FFBC01"/>
<path d="M0 52.5V67H14.5H29V52.5V38H14.5H0V52.5ZM8.64238 45.394V49.7152H14.5H20.3576V45.394V41.0728H23.1424H25.9272V52.5V63.9272H14.5H3.07285V52.5V41.0728H5.85762H8.64238V45.394ZM17.2848 43.8576V46.6424H14.5H11.7152V43.8576V41.0728H14.5H17.2848V43.8576Z" fill="#FFBC01"/>
<path d="M6 53.5V55H9H12V53.5V52H9H6V53.5Z" fill="#FFBC01"/>
<path d="M6 59.5V61H9H12V59.5V58H9H6V59.5Z" fill="#FFBC01"/>
<path d="M35 42.4172V46.8344H36.5364H38.0728V43.9536V41.0728H40.8576H43.6424V45.394V49.7152H49.5H55.3576V45.394V41.0728H58.1424H60.9272V52.5V63.9272H49.5H38.0728V56.7252V49.5232H36.5364H35V58.2616V67H49.5H64V52.5V38H49.5H35V42.4172ZM52.2848 43.8576V46.6424H49.5H46.7152V43.8576V41.0728H49.5H52.2848V43.8576Z" fill="#FFBC01"/>
<path d="M70 52.5V67H84.5H99V52.5V38H84.5H70V52.5ZM78.8344 45.394V49.7152H84.596H90.3576V45.394V41.0728H93.1424H95.9272V52.5V63.9272H84.5H73.0728V52.5V41.0728H75.9536H78.8344V45.394ZM87.2848 43.8576V46.6424H84.596H81.9073V43.8576V41.0728H84.596H87.2848V43.8576Z" fill="#FFBC01"/>
<path d="M76 53.5V55H79H82V53.5V52H79H76V53.5Z" fill="#FFBC01"/>
<path d="M76 59.5V61H79H82V59.5V58H79H76V59.5Z" fill="#FFBC01"/>
<path d="M41 53.5V55H44H47V53.5V52H44H41V53.5Z" fill="#FFBC01"/>
<path d="M41 59.5V61H44H47V59.5V58H44H41V59.5Z" fill="#FFBC01"/>
<path d="M0 84.5V99H14.5H29V84.5V70H14.5H0V84.5ZM8.64238 77.3454V81.6382H14.5H20.3576V77.3454V73.0526H23.1424H25.9272V84.5V95.9474H14.5H3.07285V84.5V73.0526H5.85762H8.64238V77.3454ZM17.2848 75.8191V78.5855H14.5H11.7152V75.8191V73.0526H14.5H17.2848V75.8191Z" fill="#FFBC01"/>
<path d="M6 85.5V87H9H12V85.5V84H9H6V85.5Z" fill="#FFBC01"/>
<path d="M6 91.5V93H9H12V91.5V90H9H6V91.5Z" fill="#FFBC01"/>
<path d="M35 84.5V99H49.5H64V84.5V70H49.5H35V84.5ZM43.6424 77.3454V81.6382H49.5H55.3576V77.3454V73.0526H58.1424H60.9272V84.5V95.9474H49.5H38.0728V84.5V73.0526H40.8576H43.6424V77.3454ZM52.2848 75.8191V78.5855H49.5H46.7152V75.8191V73.0526H49.5H52.2848V75.8191Z" fill="#FFBC01"/>
<path d="M41 85.5V87H44H47V85.5V84H44H41V85.5Z" fill="#FFBC01"/>
<path d="M41 91.5V93H44H47V91.5V90H44H41V91.5Z" fill="#FFBC01"/>
<path d="M70 84.5V99H77.202H84.404V97.4737V95.9474H78.7384H73.0728V84.5V73.0526H75.9536H78.8344V77.3454V81.6382H84.596H90.3576V77.3454V73.0526H93.1424H95.9272V84.5V95.9283L94.4483 95.9855L92.9503 96.0428L92.8927 97.5118L92.8351 99H95.9272H99V84.5V70H84.5H70V84.5ZM87.2848 75.8191V78.5855H84.596H81.9073V75.8191V73.0526H84.596H87.2848V75.8191Z" fill="#FFBC01"/>
<path d="M76 85.5V87H79H82V85.5V84H79H76V85.5Z" fill="#FFBC01"/>
<path d="M76 91.5V93H79H82V91.5V90H79H76V91.5Z" fill="#FFBC01"/>
<path d="M87.1313 96.1312C87.0563 96.1875 87 96.8625 87 97.6312V99H88.5H90V97.5V96H88.6313C87.8625 96 87.1875 96.0562 87.1313 96.1312Z" fill="#FFBC01"/>
</svg>
