<svg width="72" height="99" viewBox="0 0 72 99" fill="none" xmlns="http://www.w3.org/2000/svg">
<path d="M33.5593 0.2033C32.1128 0.686882 31.2449 1.28653 28.0625 3.91724C26.3074 5.368 24.5523 6.74138 24.1473 6.95415C23.5687 7.24431 22.315 7.43774 18.7855 7.80527C13.7516 8.3082 12.7101 8.579 11.2057 9.73961C10.7236 10.1071 10.0292 10.8035 9.66277 11.2871C8.50555 12.8152 8.23554 13.8791 7.71479 18.9084C7.36762 22.4289 7.17475 23.6862 6.88545 24.2665C6.67329 24.6727 5.30392 26.433 3.85739 28.1932C2.19871 30.1856 0.983635 31.8685 0.597896 32.6422C0.0385739 33.8222 0 34.0156 0 36.124C0.019287 39.0836 0.231444 39.5478 3.85739 43.9581C5.41964 45.8731 6.84687 47.7494 7.00117 48.117C7.15547 48.4845 7.48334 50.825 7.73407 53.3397C8.2934 58.9686 8.60199 59.9165 10.5307 61.8121C12.0158 63.2822 13.3273 63.7658 16.6639 64.1333L19.557 64.4622L14.2724 77.1321C11.1672 84.5406 8.96844 90.0535 8.96844 90.421C8.96844 91.2335 9.75921 92.1813 10.5693 92.3167C10.9936 92.3941 12.633 92.0072 15.9117 91.0787C18.4962 90.3243 20.6371 89.744 20.6563 89.7634C20.6756 89.7827 21.6978 91.6784 22.9515 93.9609C24.1859 96.2434 25.4202 98.3132 25.671 98.5646C25.9988 98.8548 26.4039 98.9902 26.9246 98.9902C27.9468 98.9902 28.3711 98.7387 28.8147 97.8683C29.0076 97.4814 31.5728 91.3689 34.5237 84.2892C38.5354 74.5981 39.9819 71.3291 40.3483 71.0389C40.6184 70.8261 42.277 69.4528 44.0514 68.002C46.1537 66.2611 47.5424 65.2359 48.121 65.0425C48.6032 64.8877 49.0082 64.8103 49.0468 64.8877C49.066 64.9844 51.3033 70.3039 53.9842 76.7452C56.6844 83.1866 58.8445 88.4867 58.8253 88.506C58.7867 88.5447 57.1666 88.1192 55.2379 87.5776C51.3805 86.475 50.3776 86.3976 49.3361 87.152C48.9889 87.4035 48.1403 88.7188 46.9831 90.8466C45.9994 92.6649 45.1315 94.193 45.0544 94.2317C44.9965 94.2897 43.8971 91.8524 42.6435 88.8349C41.3898 85.8173 40.2519 83.1866 40.0976 82.9738C39.3068 81.8326 37.3203 82.5869 37.3203 83.999C37.3203 84.56 43.0871 98.081 43.5114 98.5259C44.0514 99.1062 45.4787 99.1643 46.1151 98.642C46.3466 98.4679 47.5809 96.3788 48.8732 93.9996C51.0333 90.0729 51.284 89.7053 51.6505 89.8214C53.1356 90.305 60.7539 92.4134 60.9854 92.4134C62.104 92.4134 63.1262 90.982 62.8177 89.8407C62.7212 89.4926 60.3103 83.6702 57.4752 76.8806C54.64 70.0911 52.3448 64.5008 52.3834 64.4815C52.422 64.4428 53.5213 64.3074 54.8328 64.172C57.6295 63.9205 58.8445 63.5724 60.1753 62.7212C61.8147 61.6574 62.9141 60.1873 63.4348 58.3496C63.5891 57.7693 63.917 55.4675 64.1292 53.243C64.3413 50.9991 64.6499 48.794 64.8042 48.3104C65.0164 47.7108 65.9807 46.3761 67.813 44.1516C69.3174 42.3526 70.7446 40.515 70.9953 40.0894C71.7282 38.8321 72.0947 37.0138 71.979 35.3696C71.8247 33.2612 71.0146 31.8105 67.9866 28.1932C66.6172 26.549 65.2671 24.7501 65.0164 24.2278C64.6113 23.4154 64.4763 22.6223 64.1292 19.0051C63.917 16.6646 63.6084 14.3047 63.4541 13.7824C62.7984 11.4612 60.7925 9.37209 58.4395 8.579C57.9188 8.38557 55.5079 8.05673 53.0584 7.80527C50.609 7.5538 48.2946 7.22496 47.9281 7.07021C47.5617 6.91547 45.6908 5.48405 43.7814 3.91724C39.5383 0.416077 38.9018 0.0872345 36.2595 0.00986481C35.0444 -0.0288239 34.0415 0.0485535 33.5593 0.2033ZM37.8025 3.41431C38.2268 3.60774 40.059 4.98112 41.8527 6.45123C43.6657 7.94067 45.3437 9.27537 45.6137 9.44946C46.8095 10.1845 47.9281 10.436 52.422 10.8809C57.5523 11.4031 58.1888 11.5966 59.3653 12.8926C60.3682 14.0145 60.6189 14.943 61.0433 19.4887C61.4676 23.841 61.6219 24.7308 62.2198 25.9107C62.4126 26.2976 63.8784 28.2126 65.4793 30.1663C68.6616 34.0349 69.1245 34.9247 68.8738 36.6463C68.7002 37.923 68.2373 38.658 65.3828 42.1205C62.8369 45.2154 62.104 46.2987 61.6604 47.7301C61.5254 48.0976 61.2554 50.2834 61.0433 52.5659C60.8311 54.8485 60.5611 57.0343 60.4646 57.4212C60.0982 58.7752 58.5552 60.3227 57.1859 60.6902C56.8194 60.7869 54.64 61.0577 52.3641 61.2705C50.0883 61.4833 47.9088 61.7734 47.5424 61.8895C46.1344 62.3344 45.0351 63.0501 41.9492 65.6228C38.4968 68.4856 37.7639 68.9498 36.4909 69.1239C34.7744 69.3754 33.8872 68.9111 30.0298 65.7195C28.0818 64.114 26.1724 62.6439 25.7867 62.4504C24.6102 61.8508 23.723 61.696 19.3834 61.2705C14.851 60.8449 13.9252 60.5935 12.8065 59.5876C11.5143 58.4077 11.3215 57.7693 10.82 52.624C10.3571 48.1363 10.1257 47.0144 9.37347 45.7957C9.21917 45.5249 7.90766 43.8807 6.46113 42.1205C3.49094 38.5033 2.98948 37.6328 2.98948 36.2594C2.98948 34.712 3.33665 33.9189 4.89889 31.9845C5.70894 30.998 7.07832 29.3151 7.92694 28.2319C10.1064 25.5625 10.2607 25.0983 10.82 19.4307C11.225 15.2331 11.3215 14.7302 11.8036 13.8404C12.3437 12.8539 12.9801 12.2542 14.1373 11.674C14.5617 11.4612 16.2396 11.2097 19.3448 10.9002C24.9766 10.3393 25.4395 10.1845 28.1011 7.9987C34.408 2.87269 34.0608 3.10481 35.9702 3.06612C36.6067 3.06612 37.3396 3.20153 37.8025 3.41431ZM24.4944 65.4293C24.9188 65.6808 26.6546 67.0348 28.3518 68.4469C31.7078 71.213 33.0771 72.0254 34.8708 72.2189C35.7773 72.3156 35.9895 72.4123 35.9123 72.6638C35.7773 73.1667 27.0596 94.0383 26.9053 94.2123C26.8475 94.2897 26.0567 93.0131 25.1888 91.4075C23.3179 87.9838 22.8551 87.3067 22.0836 86.9005C21.1771 86.4363 20.2127 86.5523 16.5868 87.5776C14.6967 88.1192 13.1151 88.5254 13.0766 88.4867C13.038 88.4287 15.1403 83.2833 17.7633 77.016C20.367 70.7488 22.585 65.4293 22.6815 65.1779C22.8743 64.6556 23.2408 64.7136 24.4944 65.4293Z" fill="#FFBC01"/>
<path d="M32.8366 13.1286C32.0227 13.3808 31.7513 13.7494 31.7513 14.6224C31.7513 15.1656 31.887 15.4566 32.2552 15.767C32.7204 16.1744 32.8754 16.1938 34.9491 16.0968C40.7244 15.8058 46.0927 17.8816 50.1238 21.9556C57.8953 29.8321 57.8566 42.1706 50.0269 50.0083C43.9028 56.1387 34.8522 57.6713 27.2551 53.8301C17.2549 48.8055 13.2626 36.9714 18.2239 27.0967C20.1038 23.3718 23.2628 20.132 26.7319 18.3666C27.4102 18.0174 28.1272 17.5712 28.321 17.3772C28.8055 16.8922 28.8055 15.6312 28.3598 15.2044C27.6621 14.5836 27.1195 14.6224 25.4915 15.4178C19.1929 18.5218 14.5611 24.8075 13.282 32.0049C12.7975 34.7209 12.9525 39.0666 13.6308 41.6468C15.9371 50.4739 23.0884 57.1281 31.9839 58.7384C34.077 59.1264 38.4957 59.0682 40.4918 58.6608C49.7169 56.7013 56.5968 49.8531 58.6512 40.5604C59.1163 38.4846 59.1163 33.4211 58.6512 31.4035C56.655 22.4988 50.337 15.8446 41.7322 13.5748C40.143 13.1674 39.2903 13.0704 36.6352 13.0122C34.8716 12.9734 33.1661 13.0316 32.8366 13.1286Z" fill="#FFBC01"/>
<path d="M43.8869 26.0289C42.4025 26.2409 42.098 26.4914 36.4268 32.1956L30.7556 37.8999L28.9857 36.1269C26.9304 34.1035 26.0169 33.6024 24.4183 33.5832C22.6485 33.5832 21.2402 34.4118 20.4219 35.9728C19.889 37.0134 19.8509 39.1525 20.3648 40.1353C20.5551 40.5015 22.3059 42.4478 24.2661 44.452C28.2055 48.499 28.9286 49 30.7556 49C32.6967 48.9807 32.9251 48.8073 40.7087 40.9447C44.6671 36.9556 48.1307 33.3134 48.3781 32.8701C50.0148 30.0951 48.2449 26.3758 45.1239 26.0289C44.7052 25.9904 44.1533 25.9904 43.8869 26.0289ZM45.5045 29.6326C45.7709 29.8831 45.9802 30.2878 45.9802 30.5383C45.9802 30.8467 43.963 33.005 38.6153 38.4395C32.2971 44.8375 31.1552 45.9166 30.6795 45.9166C30.2227 45.9166 29.5757 45.3578 26.8162 42.5827C24.9893 40.7713 23.3716 39.0176 23.2004 38.7093C22.7056 37.765 23.4097 36.6665 24.5135 36.6665C24.837 36.6665 25.6553 37.3603 27.3301 39.0754C28.6241 40.3858 29.9182 41.5421 30.1847 41.6385C31.2314 42.0046 31.65 41.6577 37.8922 35.3176C44.4958 28.6112 44.5149 28.6112 45.5045 29.6326Z" fill="#FFBC01"/>
</svg>
