<svg width="89" height="99" viewBox="0 0 89 99" fill="none" xmlns="http://www.w3.org/2000/svg">
<path d="M7.96677 0.277039C6.41701 0.857193 5.04159 2.1722 4.28608 3.79662L3.8599 4.72485L3.80178 29.4973L3.76304 54.2697L3.00753 54.6177C2.00018 55.0625 0.973464 56.1455 0.431047 57.3251C0.00486222 58.2533 -0.0145098 58.4854 0.00486223 62.6432C0.0436063 69.0441 0.256699 70.3591 2.69758 79.3708C3.06564 80.7438 3.5112 82.6003 3.68555 83.4512L3.9955 85.0369L3.22062 85.7331C2.07767 86.758 1.98081 87.3575 2.0583 92.4242C2.11641 97.2781 2.21327 97.6649 3.56932 98.5544L4.20859 98.9992H18.4277C34.1771 98.9992 33.2666 99.0766 34.3127 97.7035L34.8552 97.0074L34.9133 92.7336C34.952 90.3743 34.9326 88.0924 34.8552 87.6283C34.7002 86.6227 33.6541 85.3463 32.8211 85.1723L32.2787 85.0563L33.1504 83.1805C33.6347 82.1555 34.4677 79.9703 35.0101 78.3652L35.9787 75.4064L47.4276 75.3678L58.8765 75.3098L59.8451 74.8456C61.0655 74.2268 62.2472 73.0665 62.8477 71.8289C63.3321 70.8813 63.3321 70.7846 63.3902 65.1571L63.4483 59.4523L66.8965 59.5103L70.3641 59.5684L70.7515 59.0849C71.0034 58.7368 71.1777 58.1373 71.2746 57.2284L71.4102 55.8941L72.6887 55.488C73.4055 55.2559 74.6259 54.7724 75.4202 54.3857L76.8344 53.7088L77.648 54.3083C78.9265 55.2752 79.5077 55.5266 80.0501 55.3913C80.7088 55.2366 84.312 51.717 84.68 50.8854C84.99 50.1313 84.7575 49.4931 83.6921 48.2361L83.0334 47.4626L83.7695 46.0122C84.1764 45.2193 84.6607 44.0397 84.8544 43.4015C85.0481 42.7633 85.2999 42.1832 85.3968 42.1252C85.4937 42.0478 86.1329 41.9318 86.8303 41.8544C87.7796 41.7578 88.2057 41.603 88.5351 41.2743C88.9806 40.8295 89 40.7135 89 37.6967C89 34.6799 88.9806 34.5639 88.5351 34.1191C88.2057 33.7904 87.7602 33.6357 86.9466 33.539C85.2418 33.3456 85.2418 33.3456 84.8738 32.0499C84.68 31.3924 84.1957 30.1934 83.7889 29.3812L83.0528 27.9115L83.6921 27.1573C84.68 25.9777 84.9706 25.2622 84.7382 24.6047C84.4863 23.9665 81.2124 20.5823 80.4376 20.1762C79.6433 19.7507 79.2365 19.8474 78.2098 20.6403C77.7061 21.0464 77.1637 21.4332 77.0475 21.5105C76.9118 21.6072 76.0982 21.3171 75.2071 20.8917C74.316 20.4663 73.1149 19.9828 72.495 19.8088L71.4102 19.4993L71.2746 18.165C71.1777 17.2561 71.0034 16.6566 70.7515 16.3085L70.3641 15.8251L66.8965 15.8831L63.4483 15.9411L63.3902 10.2363C63.3321 4.62817 63.3321 4.51213 62.8477 3.56456C62.1891 2.21088 60.7556 0.876526 59.4576 0.393074C58.3922 -0.013031 58.2178 -0.013031 33.5379 0.00630188C12.6935 0.00630188 8.58667 0.0643158 7.96677 0.277039ZM58.5665 3.17779C58.9346 3.39051 59.4964 3.89331 59.8257 4.29942L60.4262 5.0536L60.465 12.6149L60.5231 20.1955L59.0508 20.8724C58.2372 21.2398 57.4817 21.5879 57.4042 21.6072C57.3073 21.6459 57.2299 18.3004 57.2299 14.0653C57.2299 7.49023 57.1911 6.38795 56.9199 6.02052L56.6293 5.59508H33.3054H9.98146L9.69088 6.02052C9.41967 6.40729 9.38093 8.90193 9.38093 29.0138V51.5816L8.79977 51.8137C8.47044 51.9491 7.85054 52.4519 7.44372 52.9353L6.66884 53.8055V29.7486C6.66884 6.67802 6.68822 5.6531 7.03691 4.8989C7.44372 3.99 8.37358 3.19713 9.38093 2.92639C9.82648 2.79102 18.447 2.73301 33.9834 2.75235C57.5204 2.79102 57.9272 2.79102 58.5665 3.17779ZM54.3241 14.0846C54.3241 19.5187 54.3047 19.8861 53.9754 19.9828C53.7816 20.0602 52.6387 21.0851 51.457 22.3034C48.9193 24.8561 48.8418 25.1075 50.0235 26.6158C50.4303 27.1186 50.8177 27.6408 50.8952 27.7761C50.9727 27.8922 50.7402 28.5884 50.3722 29.3232C50.0041 30.0387 49.5198 31.199 49.2873 31.8952C49.0549 32.5914 48.7643 33.2102 48.6674 33.2682C48.5512 33.3456 47.9313 33.4616 47.2726 33.539C45.1805 33.771 45.2192 33.6937 45.2192 37.5613C45.2192 40.114 45.2773 41.0036 45.4904 41.2743C45.6841 41.545 46.1684 41.6997 47.2726 41.8544L48.7836 42.0672L49.2873 43.4982C49.5779 44.2911 50.0816 45.4901 50.4303 46.1669L51.0502 47.3852L50.1591 48.5842C48.8418 50.3633 48.8805 50.4793 51.457 53.09C52.6387 54.3083 53.7816 55.3333 53.9754 55.4106C54.3047 55.5073 54.3241 55.8747 54.3241 61.3088V67.091H45.5291H36.7342L36.7536 64.7123C36.7924 62.4884 36.7536 62.2951 36.2499 61.2508C35.6494 60.0131 34.8745 59.2783 33.6153 58.7175C32.9567 58.4274 32.4724 58.3694 31.2907 58.4274C30.4771 58.4854 29.6828 58.5821 29.5085 58.6595C29.2373 58.7755 29.1791 58.35 29.0823 54.6951C29.0048 52.4325 28.9467 49.4931 28.9467 48.1587L28.9661 45.7221L29.7797 45.3353C30.2252 45.1226 30.787 44.6585 31.0195 44.2911C31.4457 43.6529 31.465 43.4982 31.465 38.6636C31.465 33.829 31.4457 33.6743 31.0195 33.0362C30.787 32.6687 30.2059 32.1853 29.7216 31.9339C28.8692 31.5084 28.7142 31.4891 24.2005 31.5471C19.8031 31.6051 19.5125 31.6245 18.8732 32.0306C18.4858 32.2626 17.9821 32.8041 17.7496 33.2102C17.3428 33.9451 17.3235 34.1965 17.3235 38.6443C17.3235 43.9236 17.4397 44.4071 18.7764 45.2387L19.4544 45.6641V47.1338C19.4544 47.946 19.3769 48.7196 19.2994 48.8162C19.2219 48.9323 18.4664 49.0096 17.614 49.0096C16.413 49.0096 15.8899 49.1063 15.2894 49.4351C14.5339 49.8412 13.6621 50.634 13.3328 51.2529C13.1972 51.4849 13.0422 51.5236 12.7323 51.4076L12.2867 51.2529V29.768V8.30244H33.3054H54.3241V14.0846ZM68.6206 20.1375C68.7368 20.8917 68.9499 21.6266 69.0855 21.7619C69.2211 21.9166 69.996 22.1874 70.8097 22.4001C72.4563 22.8255 74.4322 23.6571 75.5558 24.4306C76.6213 25.1461 77.2412 25.0881 78.5004 24.1405L79.5464 23.3477L80.4957 24.2759L81.4255 25.2235L80.67 26.2291C79.682 27.5247 79.682 28.0662 80.6507 29.7293C81.3868 30.967 82.1617 32.9588 82.6072 34.7573C82.7816 35.4535 82.9366 35.6468 83.479 35.8789C83.847 36.0336 84.3895 36.1496 84.68 36.1496C85.9973 36.1496 86.0942 36.2657 86.0942 37.716V39.0311L85.1837 39.1471C82.8978 39.4758 82.9947 39.3598 82.0454 42.3959C81.7161 43.4402 81.0962 44.8906 80.67 45.6254C79.682 47.3079 79.682 47.8106 80.67 49.1257L81.4449 50.1699L80.4957 51.1175L79.5464 52.0457L78.5004 51.2529C77.8611 50.7694 77.2218 50.46 76.9118 50.46C76.6213 50.46 75.7689 50.8274 75.0328 51.2529C73.6767 52.0651 70.829 53.1674 70.0929 53.1674C69.2599 53.1674 68.8531 53.7475 68.6206 55.2366L68.4269 56.6483H67.0902C65.618 56.6483 65.6761 56.7063 65.463 54.9658C65.3855 54.405 65.1918 53.8442 64.998 53.6702C64.8237 53.5155 63.9132 53.148 62.9834 52.8773C61.3174 52.3938 59.3802 51.5429 58.3534 50.8274C57.5979 50.286 56.8037 50.3633 55.8351 51.0982C54.479 52.1424 54.5565 52.1231 53.5492 51.1368L52.6193 50.2086L53.3748 49.261C54.3822 47.9654 54.4984 47.4819 53.956 46.4956C52.7743 44.4264 52.135 42.9761 51.8057 41.6224C51.2633 39.5338 51.1664 39.4565 48.8611 39.1471L47.9313 39.0311V37.716V36.3817L48.5706 36.285C48.8999 36.227 49.5585 36.111 50.0041 36.0529C51.0308 35.8982 51.3795 35.4921 51.7282 34.0418C52.0575 32.5721 52.7549 30.909 53.646 29.4392C54.0141 28.8204 54.3241 28.1049 54.3241 27.8535C54.3241 27.6021 53.9754 26.9253 53.5492 26.3644C53.123 25.8036 52.7743 25.2622 52.7743 25.1848C52.7743 25.0108 54.3628 23.3863 54.5178 23.3863C54.5953 23.3863 55.1183 23.7344 55.6801 24.1599C56.2419 24.5853 56.9005 24.9334 57.133 24.9334C57.3461 24.9334 58.5278 24.4306 59.7482 23.8118C60.988 23.193 62.5184 22.5741 63.1964 22.4194C64.8818 22.0713 65.308 21.7039 65.463 20.4469C65.6761 18.6871 65.618 18.7451 67.0902 18.7451H68.4269L68.6206 20.1375ZM28.5205 34.6413C28.6755 34.796 28.753 35.4921 28.7336 36.5364C28.7336 37.8321 28.6948 38.0835 28.5399 37.6967C28.2687 37.0005 27.2419 35.9949 26.3508 35.5308C24.743 34.6993 22.0696 35.2021 20.7911 36.5557L20.2293 37.1552V35.9176C20.2293 35.2214 20.2874 34.6026 20.3649 34.5446C20.5973 34.2932 28.2687 34.3899 28.5205 34.6413ZM25.4016 38.3929C25.6534 38.5476 25.8665 38.9344 25.9246 39.2824C25.9828 39.6305 26.0603 43.7496 26.1184 48.4295C26.3508 66.9749 26.4671 70.6492 26.7383 71.094C27.2226 71.8675 28.7142 71.7128 29.121 70.8426C29.2566 70.5332 29.3341 68.9668 29.3341 66.4915V62.6045L29.9928 61.947C30.5546 61.3862 30.787 61.2895 31.5232 61.2895C32.6467 61.2895 33.4991 61.9663 33.7897 63.0686C34.0222 63.9195 33.8866 69.1988 33.5766 71.8289C33.1892 75.0003 31.9687 78.7907 30.0703 82.7937L29.0823 84.8822H18.0015H6.92068L6.49449 82.813C6.2814 81.6527 5.77773 79.5835 5.40966 78.2105C3.8599 72.467 3.58869 71.3454 3.29811 69.4116C3.12376 68.2899 2.93004 65.6019 2.85255 63.4167C2.73632 59.665 2.75569 59.3943 3.14313 58.5434C3.64681 57.4025 4.61541 56.8223 5.40966 57.1897L5.89396 57.4218V60.806C5.89396 64.1515 5.89396 64.2096 6.37826 64.6737C6.90131 65.2151 7.75368 65.3118 8.33484 64.8864C8.68353 64.635 8.70291 64.2869 8.79977 60.2839C8.89663 56.2615 8.916 55.9328 9.32281 55.2752C9.98146 54.231 11.0276 53.8829 12.1705 54.3277L12.6742 54.5211V57.9633C12.6742 61.0187 12.7129 61.4635 13.0229 61.7149C13.8171 62.4304 14.9601 62.2564 15.3669 61.3475C15.5025 61.0574 15.58 59.4717 15.58 57.1124C15.58 53.0127 15.6962 52.4712 16.6454 52.0457C17.4203 51.6977 18.0209 51.775 18.6214 52.2778L19.1638 52.7419L19.2607 56.745C19.3575 60.7093 19.3575 60.748 19.8418 61.1348C20.1712 61.4055 20.4811 61.4828 20.9073 61.4055C22.1471 61.1541 22.089 61.5795 22.244 50.2666C22.3408 43.0921 22.4377 39.7852 22.612 39.2824C22.767 38.7797 23.0382 38.4702 23.5225 38.2382C24.2199 37.8901 24.6461 37.9288 25.4016 38.3929ZM60.465 62.7785L60.4262 70.3398L59.8257 71.0747C59.5158 71.4808 58.8959 71.9836 58.4697 72.1963C57.7335 72.583 57.4042 72.6024 47.1177 72.6604L36.5018 72.7184V72.1576C36.5018 71.8482 36.5599 71.1907 36.618 70.6879L36.7536 69.7983H46.6915H56.6293L56.9199 69.3729C57.1911 69.0055 57.2299 67.9032 57.2299 61.2895V53.6315L58.8765 54.4244L60.5231 55.1979L60.465 62.7785ZM32.0075 91.9214C32.0462 95.0348 31.9881 96.0018 31.8137 96.1371C31.6781 96.2145 25.6728 96.2918 18.4858 96.2918C8.54793 96.2918 5.33217 96.2338 5.15782 96.0598C4.98348 95.8857 4.92536 94.7061 4.92536 91.902V87.9957L7.30812 87.9183C8.60605 87.899 14.6889 87.8603 20.8104 87.8797H31.9494L32.0075 91.9214Z" fill="#FFBC01"/>
<path d="M18.6814 12.3007C18.3336 12.4736 17.8117 12.9155 17.5218 13.2806L17 13.953V19.0062C17 23.8289 17.0193 24.0786 17.4059 24.5974C17.6185 24.8856 18.1016 25.3275 18.4495 25.5581C19.068 25.9808 19.2226 26 23.8997 26C29.2532 26 29.6591 25.9231 30.4901 24.7703C30.896 24.1939 30.9153 24.0018 30.9733 19.1792C31.0313 14.222 31.0313 14.1644 30.5868 13.5303C29.6011 12.0701 29.6011 12.0701 24.1896 12.0125C19.9763 11.974 19.2419 12.0125 18.6814 12.3007ZM28.1902 15.1635C28.2482 15.3364 28.3062 17.0849 28.3062 19.0831C28.3062 22.1188 28.2482 22.7529 27.997 23.0027C27.7457 23.2524 27.1079 23.3101 24.0543 23.3101C22.0443 23.3101 20.2856 23.2524 20.1116 23.1948C19.841 23.0987 19.8024 22.5415 19.8024 19.1023C19.8024 16.9119 19.8604 15.0482 19.9377 14.9906C19.9957 14.9137 21.8704 14.8561 24.0736 14.8561C27.5331 14.8561 28.0936 14.8945 28.1902 15.1635Z" fill="#FFBC01"/>
<path d="M36.4037 15.4C35.8199 16 35.8783 17.06 36.5205 17.58C37.0265 17.98 37.26 18 43.5072 18C49.7543 18 49.9878 17.98 50.4938 17.58C50.8831 17.26 50.9998 17 50.9998 16.42C50.9998 14.98 51.1361 15 43.5461 15C37.046 15 36.7735 15.02 36.4037 15.4Z" fill="#FFBC01"/>
<path d="M36.3012 23.423C35.8578 24.0732 35.9157 25.0688 36.3976 25.5361C36.7639 25.8815 37.188 25.9221 40.1375 25.9831C44.0316 26.0643 44.7256 25.8815 44.9569 24.8046C45.0533 24.317 44.9955 24.0122 44.7063 23.6059L44.34 23.0776L40.4652 23.0166C36.6482 22.976 36.5904 22.976 36.3012 23.423Z" fill="#FFBC01"/>
<path d="M36.3124 32.3816C35.8836 32.9116 35.9023 34.1836 36.3311 34.6076C36.8345 35.1164 42.148 35.1376 42.5955 34.6288C43.1921 33.9504 43.1175 32.6784 42.4463 32.1696C42.3344 32.0848 40.9734 32 39.426 32C36.9277 32 36.5735 32.0424 36.3124 32.3816Z" fill="#FFBC01"/>
<path d="M37.0227 40.1219C36.3533 40.303 36 40.8062 36 41.5911C36 42.8792 36.2789 43 39.4585 43C40.9832 43 42.322 42.9195 42.4336 42.839C42.8426 42.5572 43.0844 41.7723 42.9728 41.1484C42.7869 40.2225 42.0059 39.981 39.4957 40.0011C38.3429 40.0213 37.2272 40.0816 37.0227 40.1219Z" fill="#FFBC01"/>
<path d="M64.4188 25.3908C58.7479 26.8386 55 31.6906 55 37.4818C55 40.7491 56.0989 43.5664 58.2573 45.8946C59.8468 47.6163 61.3184 48.575 63.3984 49.2989C66.6754 50.4141 70.0897 50.1989 73.1704 48.6533C75.1719 47.6359 76.6828 46.3055 77.9387 44.4273C79.3515 42.3143 79.9598 40.3187 79.999 37.697C80.0187 35.2318 79.7439 34.0188 78.6843 31.8276C76.1923 26.7016 70.0504 23.9234 64.4188 25.3908ZM69.815 28.2081C74.544 29.4407 77.7817 34.234 76.9968 38.91C76.6632 40.9643 75.7802 42.6469 74.2497 44.1729C72.778 45.6403 71.5025 46.3642 69.5795 46.8142C68.0686 47.1663 65.9886 47.0881 64.7131 46.6381L63.9282 46.3642L63.8694 37.5992C63.8497 32.3167 63.9086 28.7363 64.0067 28.6385C64.3207 28.3255 66.2044 27.9538 67.4603 27.9342C68.1274 27.9146 69.1674 28.0516 69.815 28.2081ZM60.8475 40.9839L60.7886 44.4468L59.8664 43.2143C58.4143 41.2774 58.0611 40.1622 58.0611 37.5014C58.0611 34.8406 58.4143 33.7254 59.8664 31.7884L60.7886 30.5559L60.8475 34.0384C60.8671 35.9362 60.8671 39.0665 60.8475 40.9839Z" fill="#FFBC01"/>
</svg>
