<svg width="114" height="92" viewBox="0 0 114 92" fill="none" xmlns="http://www.w3.org/2000/svg">
<path d="M55.6319 0.323643C53.5483 0.964863 53.1891 1.41609 49.8601 8.01828C48.1597 11.3669 46.6029 14.2642 46.4113 14.4305C46.1958 14.573 43.1542 15.1429 39.6097 15.6417C36.0412 16.1642 32.9517 16.6629 32.6882 16.7341C30.4609 17.5653 29 19.7265 29 22.2201C29 24.6425 29.5269 25.3787 34.7479 30.366C37.2866 32.7646 39.442 34.9733 39.5618 35.282C39.6815 35.6382 39.5857 36.7069 39.2983 38.3694C38.5319 42.4542 38.6517 43.4041 40.0408 43.8791C41.1185 44.2591 42.292 43.7129 42.6034 42.6679C43.1303 41.0292 43.8727 35.8282 43.705 34.9495C43.3937 33.2871 42.6992 32.4084 37.8853 27.6349C33.6941 23.5026 33.0714 22.7901 33.0714 22.1489C33.0714 20.7714 33.4786 20.6289 40.2084 19.6552C47.2735 18.634 47.7286 18.5153 49.0937 17.5416C50.0038 16.8766 50.4109 16.2116 52.9975 10.9394C54.5782 7.70955 56.0391 4.88343 56.2546 4.64594C56.4702 4.40845 56.9492 4.24221 57.5 4.24221C58.0269 4.24221 58.5298 4.40845 58.7693 4.64594C58.9609 4.88343 60.4219 7.70955 62.0025 10.9156C65.0202 17.0666 65.3555 17.5178 67.3433 18.349C67.7983 18.539 71.0076 19.0853 74.4803 19.584C81.4496 20.5814 81.9286 20.7477 81.9286 22.1251C81.9286 22.7901 81.3538 23.4551 77.1147 27.6349C72.3008 32.4084 71.6063 33.2871 71.295 34.9495C71.1273 35.8282 71.8697 41.0055 72.3966 42.6679C72.708 43.7129 73.8815 44.2591 74.9592 43.8791C76.3483 43.4041 76.4681 42.4542 75.7017 38.3694C75.4143 36.7069 75.3185 35.6382 75.4382 35.282C75.558 34.9733 77.7134 32.7646 80.2521 30.366C85.4731 25.3787 86 24.6425 86 22.2201C86 19.7265 84.5391 17.5416 82.3118 16.7579C82.0723 16.6629 78.9588 16.1642 75.3903 15.6417C71.8458 15.1192 68.7803 14.573 68.5887 14.4067C68.3971 14.2642 66.8403 11.3669 65.1399 8.01828C61.787 1.36859 61.4756 0.964863 59.2723 0.299892C57.9071 -0.10384 56.9971 -0.10384 55.6319 0.323643Z" fill="#FFBC01"/>
<path d="M16.1662 22.4139C14.8457 23.001 14.2456 23.8464 12.421 27.6036L10.8845 30.7737L6.92316 31.3373C2.64976 31.9478 1.5454 32.3235 0.68112 33.5211C-0.0631232 34.5309 -0.231178 36.8322 0.34501 37.9124C0.561081 38.3351 2.02556 39.9084 3.58607 41.4113L6.443 44.1587L5.74678 48.0098C5.36265 50.1467 5.12257 52.2132 5.19459 52.5889C5.57872 54.6319 6.99518 55.8295 9.15589 55.9704C10.5483 56.0643 10.6684 56.0409 14.2936 54.2327L17.9908 52.3776L21.688 54.2327C25.2892 56.0409 25.4092 56.0643 26.8257 55.9704C27.93 55.9 28.4822 55.7121 29.1544 55.219C30.907 53.9039 31.0751 52.448 30.1387 47.3288L29.5385 44.1587L32.6356 41.106C34.4842 39.2744 35.7806 37.795 35.8766 37.3958C36.1887 36.2451 35.8766 34.3195 35.3004 33.4977C34.4361 32.3235 33.3318 31.9243 29.0584 31.3373L25.1211 30.7737L23.3685 27.2748C21.3999 23.3532 21.1358 23.0245 19.7914 22.4139C18.567 21.8503 17.4146 21.8738 16.1662 22.4139ZM19.7914 29.2943C21.592 32.8636 22.2162 33.756 23.2725 34.2961C23.6566 34.4839 25.6973 34.9066 27.834 35.2119C29.9707 35.5172 31.7713 35.8459 31.8673 35.9398C31.9633 36.0103 30.6669 37.3958 29.0104 39.016C25.0971 42.7732 25.1451 42.6089 26.0574 47.8924C26.4175 50.0293 26.6336 51.861 26.5616 51.9314C26.4896 52.0019 24.833 51.2504 22.8644 50.2407C18.0388 47.7515 17.9428 47.7515 13.1172 50.2407C11.1485 51.2504 9.492 52.0019 9.39597 51.9079C9.29994 51.8375 9.54001 50.0293 9.90013 47.9159C10.8124 42.7028 10.8845 42.8907 6.99518 39.0395C4.93051 36.9966 4.04222 35.9868 4.25829 35.8694C4.40234 35.752 5.98685 35.4937 7.71542 35.2588C13.5253 34.5074 13.5253 34.5074 16.0701 29.5056C17.0545 27.5566 17.9188 25.9598 17.9908 25.9598C18.0628 25.9598 18.8791 27.4627 19.7914 29.2943Z" fill="#FFBC01"/>
<path d="M94.2086 22.4137C93.6805 22.6484 93.0563 23.0474 92.8402 23.2821C92.6241 23.5168 91.6398 25.3239 90.6555 27.2484L88.8789 30.7923L84.9416 31.3321C80.6682 31.9424 79.5639 32.3179 78.6996 33.4914C78.1234 34.3128 77.8113 36.2373 78.1234 37.3873C78.2194 37.7863 79.5158 39.2649 81.3644 41.0955L84.4374 44.1465L83.7652 47.9486C83.021 52.1966 83.069 53.1589 84.0773 54.4262C84.8696 55.4589 86.07 55.9987 87.5345 55.9987C88.5188 56.0222 89.239 55.7405 92.36 54.1915L96.0092 52.3609L99.7064 54.215C103.332 56.0222 103.452 56.0456 104.844 55.9518C107.005 55.8109 108.421 54.614 108.805 52.5721C108.877 52.1966 108.637 50.1313 108.253 47.9956L107.557 44.1465L110.414 41.4006C111.974 39.8986 113.439 38.3261 113.655 37.9036C114.231 36.824 114.063 34.524 113.319 33.5148C112.455 32.2944 111.35 31.9189 107.077 31.3321L103.14 30.7689L101.603 27.6005C99.8025 23.8688 99.1543 23.0004 97.8338 22.4137C96.5854 21.8739 95.433 21.8504 94.2086 22.4137ZM97.9299 29.5015C100.475 34.5005 100.475 34.5005 106.285 35.2516C108.013 35.4863 109.598 35.7444 109.742 35.8618C109.958 35.9791 109.093 36.9883 107.029 39.0302C104.868 41.1894 103.908 42.2924 103.692 42.9496C103.428 43.7476 103.476 44.3578 104.076 47.8078C104.46 49.967 104.676 51.8211 104.604 51.8915C104.508 51.9854 102.851 51.2344 100.883 50.2252C96.0572 47.7374 95.9612 47.7374 91.1356 50.2252C89.191 51.2344 87.5104 52.0089 87.4384 51.915C87.3664 51.8446 87.6065 49.9905 87.9666 47.8078C88.8309 42.5976 88.9029 42.8088 84.9656 38.9832C83.3331 37.3873 82.0607 36.0026 82.1327 35.9087C82.2287 35.8148 84.0533 35.5097 86.166 35.2046C88.2787 34.8995 90.3194 34.5005 90.7035 34.2893C91.7838 33.7495 92.408 32.8577 94.2086 29.2903C95.1209 27.4597 95.9372 25.9576 96.0092 25.9576C96.0812 25.9576 96.9455 27.5535 97.9299 29.5015Z" fill="#FFBC01"/>
<path d="M54.39 40.0677C54.199 40.1153 53.2203 40.2819 52.2415 40.4247C48.5414 41.0434 44.3161 42.8996 41.0934 45.3269C36.5816 48.7776 33.4305 53.4657 31.7834 59.2246C31.0433 61.771 30.7569 67.2682 31.2343 70.1239C33.4066 83.6884 46.011 93.3264 59.6418 91.8509C68.5698 90.899 76.185 85.7588 80.1477 78.0246C82.4394 73.5745 83.1794 70.1239 82.9646 64.7694C82.7736 59.653 81.6039 55.9168 78.9302 51.7998C75.1346 46.0171 69.2621 41.9953 62.4109 40.5199C60.8592 40.1867 55.2255 39.8535 54.39 40.0677ZM62.387 44.6844C66.2065 45.6839 69.9067 47.8495 72.7235 50.7052C74.681 52.7041 75.7314 54.1558 76.8534 56.4879C80.1954 63.3416 79.6225 71.6945 75.3733 78.0008C72.2461 82.6889 67.4956 86.0205 62.1006 87.3532C59.1643 88.0671 54.8674 88.0671 51.9312 87.3532C43.6477 85.3066 37.1306 78.6195 35.4357 70.3618C34.9583 68.0535 34.9344 63.8175 35.4119 61.6044C36.2474 57.654 38.181 54.013 40.9979 51.0621C44.4593 47.4449 48.231 45.3507 53.1009 44.3512C55.4165 43.8753 59.9044 44.0419 62.387 44.6844Z" fill="#FFBC01"/>
<path d="M67.2882 58.1488C66.9581 58.2909 63.869 61.2266 60.4026 64.7069L54.083 71.0282L50.1214 67.0507C46.5135 63.4521 46.0419 63.0496 45.1694 62.9312C43.8961 62.7655 43 63.5705 43 64.8963C43 65.7486 43.283 66.08 47.7869 70.6257C50.4044 73.2773 52.9039 75.6212 53.3284 75.7869C53.9651 76.071 54.2009 76.071 54.8611 75.7869C55.2856 75.5975 58.7991 72.2356 62.8079 68.2108C69.8349 61.1319 70 60.9425 70 60.0192C70 58.5276 68.6795 57.6279 67.2882 58.1488Z" fill="#FFBC01"/>
</svg>
