<svg width="20" height="25" viewBox="0 0 20 25" fill="none" xmlns="http://www.w3.org/2000/svg">
<path d="M10 14C9.10999 14 8.23996 13.7361 7.49994 13.2416C6.75991 12.7471 6.18314 12.0443 5.84254 11.2221C5.50195 10.3998 5.41283 9.49501 5.58647 8.6221C5.7601 7.74918 6.18869 6.94736 6.81802 6.31802C7.44736 5.68869 8.24918 5.2601 9.1221 5.08647C9.99501 4.91283 10.8998 5.00195 11.7221 5.34254C12.5443 5.68314 13.2471 6.25991 13.7416 6.99994C14.2361 7.73996 14.5 8.60999 14.5 9.5C14.4986 10.693 14.024 11.8368 13.1804 12.6804C12.3368 13.524 11.193 13.9986 10 14ZM10 6.8C9.46599 6.8 8.94397 6.95835 8.49996 7.25503C8.05595 7.55171 7.70988 7.9734 7.50553 8.46676C7.30117 8.96012 7.2477 9.503 7.35188 10.0267C7.45606 10.5505 7.71321 11.0316 8.09081 11.4092C8.46841 11.7868 8.94951 12.0439 9.47326 12.1481C9.99701 12.2523 10.5399 12.1988 11.0332 11.9945C11.5266 11.7901 11.9483 11.4441 12.245 11C12.5416 10.556 12.7 10.034 12.7 9.5C12.6993 8.78414 12.4146 8.0978 11.9084 7.5916C11.4022 7.08541 10.7159 6.80072 10 6.8Z" fill="#FDD76A"/>
<path d="M10 25L2.33091 16.117C2.22435 15.9836 2.11889 15.8494 2.01455 15.7143C0.705194 14.0191 -0.0024313 11.9492 6.27653e-06 9.82143C6.27653e-06 7.21662 1.05357 4.7185 2.92894 2.87663C4.8043 1.03475 7.34784 0 10 0C12.6522 0 15.1957 1.03475 17.0711 2.87663C18.9464 4.7185 20 7.21662 20 9.82143C20.0021 11.9482 19.2948 14.017 17.9864 15.7116L17.9855 15.7143C17.9855 15.7143 17.7127 16.0661 17.6718 16.1134L10 25ZM3.46637 14.6384C3.46637 14.6384 3.67819 14.9134 3.72637 14.9723L10 22.2393L16.2818 14.9625C16.3218 14.9134 16.5345 14.6366 16.5355 14.6357C17.6056 13.251 18.184 11.5599 18.1818 9.82143C18.1818 7.69022 17.3198 5.64631 15.7854 4.13932C14.251 2.63233 12.17 1.78571 10 1.78571C7.83005 1.78571 5.74897 2.63233 4.21458 4.13932C2.6802 5.64631 1.81819 7.69022 1.81819 9.82143C1.81594 11.561 2.39496 13.2532 3.46637 14.6384Z" fill="#FDD76A"/>
</svg>
