<svg width="26" height="26" viewBox="0 0 26 26" fill="none" xmlns="http://www.w3.org/2000/svg">
<path d="M24.7483 17.4797L18.6239 14.7354L18.607 14.7276C18.2891 14.5916 17.9423 14.537 17.5979 14.5688C17.2536 14.6006 16.9226 14.7177 16.6349 14.9096C16.601 14.9319 16.5685 14.9562 16.5374 14.9824L13.3732 17.6799C11.3686 16.7062 9.29898 14.6522 8.32527 12.6736L11.0267 9.46123C11.0527 9.42873 11.0774 9.39623 11.1008 9.36113C11.2885 9.07422 11.4025 8.74534 11.4324 8.40376C11.4623 8.06219 11.4074 7.71851 11.2724 7.40331V7.38771L8.52027 1.25295C8.34183 0.841189 8.03501 0.498181 7.64561 0.27513C7.25621 0.0520779 6.80511 -0.0390542 6.35966 0.0153371C4.59811 0.247138 2.98117 1.11225 1.81084 2.44908C0.64051 3.78592 -0.00317323 5.50307 1.17633e-05 7.27981C1.17633e-05 17.6019 8.39807 26 18.7201 26C20.4969 26.0032 22.214 25.3595 23.5509 24.1892C24.8877 23.0188 25.7528 21.4019 25.9846 19.6403C26.0391 19.195 25.9481 18.744 25.7253 18.3547C25.5025 17.9653 25.1598 17.6584 24.7483 17.4797ZM18.7201 23.92C14.3084 23.9152 10.0787 22.1604 6.95912 19.0409C3.83954 15.9213 2.08484 11.6916 2.08003 7.27981C2.07514 6.01033 2.5325 4.78248 3.36669 3.82555C4.20089 2.86863 5.35488 2.24806 6.61316 2.07976C6.61264 2.08494 6.61264 2.09017 6.61316 2.09536L9.34318 8.20542L6.65606 11.4216C6.62873 11.453 6.60395 11.4865 6.58196 11.5217C6.38633 11.8219 6.27156 12.1676 6.24879 12.5252C6.22601 12.8828 6.29599 13.2402 6.45196 13.5628C7.62977 15.9717 10.0569 18.3806 12.4918 19.5571C12.8168 19.7116 13.1762 19.7792 13.5351 19.7532C13.894 19.7272 14.24 19.6086 14.5393 19.4089C14.5728 19.3865 14.6049 19.3622 14.6355 19.3361L17.7958 16.6399L23.9059 19.3764H23.9202C23.7539 20.6365 23.1343 21.7928 22.1772 22.6291C21.2201 23.4653 19.9911 23.9243 18.7201 23.92Z" fill="#FDD76A"/>
</svg>
