<svg width="29" height="29" viewBox="0 0 29 29" fill="none" xmlns="http://www.w3.org/2000/svg">
<path d="M5.70011 4.46667C5.39069 4.46667 5.09395 4.58959 4.87516 4.80838C4.65636 5.02718 4.53345 5.32392 4.53345 5.63334C4.53345 10.8935 6.62302 15.9382 10.3425 19.6576C14.062 23.3771 19.1067 25.4667 24.3668 25.4667C24.6762 25.4667 24.9729 25.3438 25.1917 25.125C25.4105 24.9062 25.5334 24.6094 25.5334 24.3V20.2167C25.5334 19.9073 25.4105 19.6105 25.1917 19.3917C24.9729 19.1729 24.6762 19.05 24.3668 19.05C22.952 19.0522 21.5461 18.8278 20.2022 18.3855C19.997 18.3201 19.7778 18.3116 19.5681 18.3609C19.3584 18.4102 19.1659 18.5154 19.0113 18.6655L16.4446 21.2321C13.1328 19.5475 10.441 16.8554 8.75678 13.5433L11.3234 10.9655C11.478 10.8189 11.5877 10.6313 11.6394 10.4247C11.6911 10.218 11.6829 10.0009 11.6156 9.79881C11.1728 8.45475 10.9481 7.04845 10.9501 5.63334C10.9501 5.32392 10.8272 5.02718 10.6084 4.80838C10.3896 4.58959 10.0929 4.46667 9.78345 4.46667H5.70011Z" fill="black"/>
</svg>
