<svg width="12" height="12" viewBox="0 0 12 12" fill="none" xmlns="http://www.w3.org/2000/svg">
<path d="M4.95023 8.7996H6.04977V7.70007H4.95023V8.7996ZM5.5 0C4.04131 0 2.64236 0.579463 1.61091 1.61091C0.579463 2.64236 0 4.04131 0 5.5C0 6.95869 0.579463 8.35764 1.61091 9.38909C2.64236 10.4205 4.04131 11 5.5 11C6.95869 11 8.35764 10.4205 9.38909 9.38909C10.4205 8.35764 11 6.95869 11 5.5C11 4.04131 10.4205 2.64236 9.38909 1.61091C8.35764 0.579463 6.95869 0 5.5 0ZM5.5 9.8998C4.33349 9.89823 3.21522 9.43414 2.39037 8.6093C1.56553 7.78445 1.10144 6.66617 1.09987 5.49967C1.10161 4.33328 1.56578 3.21517 2.39061 2.39047C3.21543 1.56577 4.33361 1.10177 5.5 1.1002C6.66639 1.10177 7.78457 1.56577 8.60939 2.39047C9.43422 3.21517 9.89839 4.33328 9.90013 5.49967C9.89856 6.66617 9.43447 7.78445 8.60963 8.6093C7.78478 9.43414 6.6665 9.89823 5.5 9.8998ZM5.5 2.19974C5.21107 2.19974 4.92497 2.25666 4.65804 2.36724C4.39112 2.47783 4.14859 2.63992 3.94432 2.84426C3.74005 3.04859 3.57803 3.29117 3.46752 3.55813C3.35701 3.82509 3.30018 4.1112 3.30026 4.40013H4.3998C4.3998 4.10834 4.51572 3.8285 4.72204 3.62217C4.92837 3.41585 5.20821 3.29993 5.5 3.29993C5.79179 3.29993 6.07163 3.41585 6.27796 3.62217C6.48428 3.8285 6.6002 4.10834 6.6002 4.40013C6.6002 5.49967 4.95023 5.36239 4.95023 7.14964H6.04977C6.04977 5.91216 7.69974 5.77488 7.69974 4.40013C7.69982 4.1112 7.64299 3.82509 7.53248 3.55813C7.42197 3.29117 7.25995 3.04859 7.05568 2.84426C6.85141 2.63992 6.60888 2.47783 6.34195 2.36724C6.07503 2.25666 5.78893 2.19974 5.5 2.19974Z" fill="#9DA1A6"/>
</svg>
