<svg width="13" height="19" viewBox="0 0 13 19" fill="none" xmlns="http://www.w3.org/2000/svg">
<path d="M3.17048 18.9457C3.03055 18.8871 2.91427 18.7839 2.83999 18.6524C2.7657 18.521 2.73764 18.3687 2.76023 18.2197L4.00465 10.1787H0.702139C0.59744 10.1815 0.493493 10.1604 0.398318 10.117C0.303144 10.0736 0.219285 10.0091 0.153214 9.92842C0.0871427 9.84777 0.0406241 9.75314 0.0172477 9.65182C-0.0061287 9.5505 -0.00573799 9.4452 0.0183895 9.34405L2.06964 0.522736C2.10573 0.370921 2.19343 0.236082 2.31796 0.140918C2.4425 0.0457532 2.59627 -0.00392614 2.75339 0.000242526H9.59089C9.69304 -0.000102165 9.79397 0.0222712 9.88626 0.0657186C9.97855 0.109166 10.0599 0.172583 10.1242 0.251311C10.1895 0.330927 10.2357 0.424199 10.2594 0.524104C10.2831 0.624009 10.2836 0.727946 10.261 0.828089L9.07808 6.10731H12.3259C12.454 6.10705 12.5797 6.14254 12.6885 6.20973C12.7973 6.27692 12.8849 6.3731 12.9413 6.4873C12.9903 6.59692 13.0091 6.71746 12.9959 6.83665C12.9827 6.95585 12.9379 7.06944 12.8661 7.16587L3.9773 18.7014C3.91723 18.7898 3.83702 18.8629 3.74317 18.9148C3.64932 18.9666 3.54448 18.9958 3.43714 19C3.34566 18.9982 3.2553 18.9798 3.17048 18.9457ZM7.3687 7.46443L8.7362 1.35737H3.30039L1.56366 8.82156H5.60463L4.51746 15.7972L10.9584 7.46443H7.3687Z" fill="#FDD76A"/>
</svg>
