<svg width="160" height="138" viewBox="0 0 160 138" fill="none" xmlns="http://www.w3.org/2000/svg">
<path d="M14.5377 0.53035C7.88698 1.98158 2.30455 7.2682 0.581575 13.8333C-0.210992 16.7358 -0.176533 98.7649 0.581575 101.736C2.23563 108.025 8.02482 113.519 14.4343 114.867C16.3985 115.281 23.5316 115.385 57.8532 115.385H98.8944L99.308 116.663C100.101 119.151 102.478 123.505 104.373 125.993C108.543 131.521 114.677 135.495 121.603 137.223C125.842 138.259 132.044 138.259 136.283 137.223C147.93 134.32 156.993 124.991 159.44 113.381C160.163 109.822 160.198 16.6321 159.474 13.8333C158.165 8.99586 154.34 4.22752 149.963 2.1198C145.415 -0.12616 149.205 -0.0225067 79.8384 0.0120544C26.9775 0.0120544 16.3985 0.115707 14.5377 0.53035ZM147.069 7.40642C150.239 9.03041 152.203 11.2073 153.409 14.3862C154.03 16.0447 154.202 17.3577 154.374 21.8151L154.546 27.2745H80.2174H5.92279V21.746C5.92279 17.0122 6.02617 15.9756 6.64644 14.2825C8.05928 10.5162 11.5052 7.40642 15.537 6.33527C16.7775 5.98975 31.1127 5.92064 80.7343 5.95518L144.346 6.02429L147.069 7.40642ZM154.443 42.6506V52.1527H80.183H5.92279V42.6506V33.1485H80.183H154.443V42.6506ZM154.443 73.1956V88.399L151.101 85.0128C144.863 78.7586 137.592 75.6489 129.219 75.6489C120.259 75.6489 113.333 78.5168 107.061 84.8054C100.859 91.025 97.9296 97.9011 97.9296 106.228V109.511H57.5086C21.5674 109.511 16.8809 109.442 15.1924 108.958C11.264 107.818 8.05928 104.846 6.64644 101.045C5.95725 99.1796 5.92279 98.523 5.92279 78.5859V58.0268H80.183H154.443V73.1956ZM136.007 82.4904C147.034 86.0148 154.098 95.5515 154.098 106.919C154.098 113.588 151.893 119.151 147.31 124.058C137.11 134.907 120.776 134.907 110.576 124.058C101.858 114.728 101.41 100.562 109.508 90.714C112.782 86.7059 118.502 83.1469 123.43 82.0412C126.496 81.3501 133.216 81.592 136.007 82.4904Z" fill="#FFD56D"/>
<path d="M18.9231 79.8118C18.2051 80.4118 18 80.9412 18 82C18 83.0588 18.2051 83.5882 18.9231 84.1882L19.812 85H43.0598H66.3077L67.1282 84.1176C68.2906 82.9529 68.2906 81.0471 67.1282 79.8824L66.3077 79H43.0598H19.812L18.9231 79.8118Z" fill="#FFD56D"/>
<path d="M18.9004 91.7412C18.1732 92.3059 18 92.7647 18 94C18 95.2353 18.1732 95.6941 18.9004 96.2588C19.7662 96.9647 20.2511 97 28.9437 97C38.0173 97 38.0519 97 38.987 96.1529C40.3377 94.9882 40.3377 93.0118 38.987 91.8471C38.0519 91 38.0173 91 28.9437 91C20.2511 91 19.7662 91.0353 18.9004 91.7412Z" fill="#FFD56D"/>
<path d="M126.763 88.7898C126 89.5711 126 89.7749 126 99.3203V109.036L127.144 109.851C127.734 110.292 130.888 112.093 134.147 113.825C140.735 117.392 141.81 117.664 143.196 116.067C144.167 114.98 144.271 113.486 143.439 112.5C143.092 112.127 140.319 110.462 137.268 108.798L131.721 105.775L131.617 97.6558C131.547 89.9108 131.513 89.5371 130.784 88.7898C129.779 87.7367 127.768 87.7367 126.763 88.7898Z" fill="#FFD56D"/>
</svg>
