<svg width="16" height="17" viewBox="0 0 16 17" fill="none" xmlns="http://www.w3.org/2000/svg">
<g clip-path="url(#clip0_90_387)">
<g clip-path="url(#clip1_90_387)">
<path fill-rule="evenodd" clip-rule="evenodd" d="M10.4357 3.8834C9.49865 2.94735 8.22772 2.42143 6.90248 2.42134C5.57724 2.42125 4.30624 2.947 3.36909 3.88293C2.43194 4.81885 1.90541 6.08829 1.90532 7.41198C1.90523 8.73567 2.43159 10.0052 3.36861 10.9412C4.30564 11.877 5.57646 12.4027 6.90152 12.4026C8.22659 12.4025 9.49734 11.8767 10.4342 10.9408C11.3711 10.0048 11.8974 8.73549 11.8973 7.41198C11.8972 6.08847 11.3708 4.8192 10.4338 3.8834H10.4357ZM2.01347 2.52985C3.25043 1.29053 4.91238 0.566578 6.6633 0.504368C8.41422 0.442158 10.1235 1.04633 11.4455 2.19473C12.7675 3.34313 13.6036 4.95008 13.7847 6.69067C13.9659 8.43126 13.4786 10.1756 12.4214 11.5711L16 15.1464L14.6449 16.5L11.0653 12.9247C9.66744 13.9726 7.92412 14.4529 6.18606 14.2689C4.44799 14.0849 2.84416 13.2504 1.69719 11.9331C0.550221 10.6159 -0.0547777 8.91365 0.00390171 7.16889C0.0625811 5.42413 0.780585 3.76725 2.01347 2.52985Z" fill="#9DA1A6"/>
</g>
</g>
<defs>
<clipPath id="clip0_90_387">
<rect width="16" height="16" fill="white" transform="translate(0 0.5)"/>
</clipPath>
<clipPath id="clip1_90_387">
<rect width="16" height="16" fill="white" transform="translate(0 0.5)"/>
</clipPath>
</defs>
</svg>
