<svg width="160" height="160" viewBox="0 0 160 160" fill="none" xmlns="http://www.w3.org/2000/svg">
<path d="M70.5942 0.515747C69.9053 0.85994 68.8719 1.57961 68.3082 2.14282C67.7758 2.73734 60.0722 15.6913 51.2413 30.9921L35.2077 58.7774H23.9028C17.6397 58.7774 11.8464 58.9026 10.9069 59.0903C6.77326 59.8726 3.04671 62.8138 1.13647 66.8189L0.134371 68.9466L0.0404245 108.685C-0.053522 153.116 -0.178784 150.55 2.13856 154.149C3.64171 156.433 5.2388 157.81 7.80667 159.03L9.84217 160H77.4837H145.125L147.004 159.093C150.292 157.466 152.923 154.556 154.081 151.176C154.614 149.549 154.676 148.485 154.676 137.565V125.738H157.338H160V109.623V93.5091H157.338H154.708L154.614 81.0558L154.52 68.6337L153.486 66.506C151.607 62.7199 148.131 59.9977 144.092 59.1216C143.184 58.9339 140.616 58.7774 138.392 58.7774C136.138 58.7774 134.321 58.6835 134.321 58.5897C134.321 58.4958 135.918 55.6484 137.891 52.2691C139.833 48.8898 141.618 45.5731 141.837 44.8847C142.338 43.3828 142.119 40.5042 141.399 39.0335C141.117 38.3764 140.396 37.4065 139.801 36.8432C139.206 36.2487 124.989 27.8631 107.797 17.9442L76.8573 0.108978L74.3521 0.0151215C72.4105 -0.0474701 71.565 0.0776978 70.5942 0.515747ZM79.0494 7.96272C81.8052 9.52722 82.6507 10.153 82.4941 10.5285C82.2123 11.3107 49.1118 68.6024 48.7047 69.0405C48.4229 69.3221 46.8258 69.4159 42.0345 69.3534L35.7714 69.2595L53.5586 38.439C63.3604 21.4799 71.659 7.21178 72.0348 6.74243C72.8176 5.67857 73.7884 5.2718 74.7279 5.616C75.1037 5.77245 77.0765 6.80501 79.0494 7.96272ZM92.3272 15.5974C94.5819 16.8803 96.4295 18.0694 96.4295 18.2571C96.4295 18.4135 89.822 29.9595 81.7739 43.9147L67.1182 69.2595L61.2622 69.3534C58.0367 69.3847 55.4062 69.3534 55.4062 69.2282C55.4062 68.7589 87.7551 13.063 87.9743 13.1568C88.1309 13.2194 90.0725 14.3146 92.3272 15.5974ZM119.885 31.524C128.559 36.5303 135.856 40.8796 136.075 41.1612C136.294 41.4741 136.513 42.0686 136.513 42.4754C136.513 42.8822 133.131 49.0463 128.935 56.3055L121.357 69.4159H97.6195C84.561 69.4159 73.8824 69.3221 73.8824 69.1969C73.8824 69.1031 80.1142 58.1829 87.7551 44.9786L101.597 20.9793L102.849 21.699C103.538 22.0744 111.21 26.5176 119.885 31.524ZM31.3559 65.4109C31.0115 65.9741 30.3538 67.1005 29.8841 67.914L29.0386 69.4159H22.4936H15.9487V72.232V75.0481H77.3271H138.705V72.232V69.4159L133.382 69.3534L128.058 69.2595L129.467 66.8189L130.877 64.4096H136.451C142.714 64.4096 144.405 64.7225 146.284 66.287C146.91 66.7876 147.787 67.9453 148.225 68.8527L149.04 70.4798V81.9945V93.4778L132.849 93.5717L116.628 93.6656L114.499 94.6668C110.49 96.5755 107.547 100.299 106.764 104.429C106.357 106.682 106.357 112.784 106.795 114.849C107.922 120.168 112.213 124.455 117.38 125.425C118.382 125.612 125.24 125.738 134.039 125.738H149.04V137.221C149.04 147.703 148.977 148.861 148.445 149.987C147.724 151.583 145.438 153.679 143.841 154.243C142.808 154.618 132.067 154.681 77.1705 154.681C15.5103 154.681 11.6585 154.649 10.5624 154.149C8.90271 153.367 7.24299 151.833 6.4601 150.331L5.77116 149.049L5.67721 110.093C5.61458 74.3597 5.6459 71.0117 6.11563 69.7601C6.99247 67.4447 9.15323 65.4421 11.5645 64.6912C12.0029 64.566 16.7629 64.4409 22.1492 64.4409L31.9822 64.4096L31.3559 65.4109ZM154.363 109.623V120.137L136.138 120.043C117.975 119.949 117.881 119.949 116.597 119.261C114.749 118.291 113.089 116.226 112.494 114.192C112.15 112.909 112.056 111.563 112.15 108.716C112.275 104.93 112.651 103.616 114.029 101.957C114.686 101.144 116.565 99.861 117.567 99.5168C118.162 99.2977 124.801 99.1726 136.451 99.1726L154.363 99.1413V109.623Z" fill="#FFD56D"/>
<path d="M121.651 102.047C117.444 103.102 115 106.05 115 110.085C115 114.648 118.341 117.969 122.982 118C126.199 118 128.489 116.696 129.943 114.027C132.789 108.813 129.602 102.605 123.817 102.047C122.982 101.984 121.992 101.984 121.651 102.047ZM124.652 108.285C125.426 108.968 125.58 110.147 125.085 111.141C124.312 112.63 122.549 112.879 121.342 111.637C120.228 110.551 120.321 109.278 121.559 108.223C122.61 107.354 123.631 107.354 124.652 108.285Z" fill="#FFD56D"/>
</svg>
