<svg width="29" height="29" viewBox="0 0 29 29" fill="none" xmlns="http://www.w3.org/2000/svg">
<path d="M14.5867 1.33345C7.45336 1.33345 1.63692 7.11814 1.63692 14.2164C1.63733 16.4745 2.2319 18.6932 3.36147 20.6516L1.53345 27.3334L8.39245 25.5393C10.2921 26.5706 12.4212 27.1118 14.5852 27.1134C21.7185 27.1134 27.5334 21.3271 27.5334 14.2289C27.5385 12.5362 27.2062 10.8592 26.5558 9.29514C25.9053 7.73103 24.9497 6.31079 23.7441 5.11659C22.5464 3.91277 21.1199 2.95827 19.5477 2.30875C17.9755 1.65923 16.289 1.32768 14.5867 1.33345ZM14.5993 3.50349C16.0129 3.50095 17.413 3.77779 18.7183 4.31795C20.0235 4.85811 21.208 5.65084 22.203 6.65013C23.2031 7.64509 23.996 8.82672 24.5362 10.1273C25.0764 11.4278 25.3533 12.8216 25.351 14.2289C25.351 20.1321 20.5176 24.9278 14.5852 24.9278C12.6581 24.9346 10.7657 24.4178 9.11206 23.4332L8.72012 23.2117L4.64391 24.2788L5.72881 20.3256L5.46699 19.9106C4.38773 18.2058 3.8169 16.2313 3.82083 14.2164C3.83337 8.31159 8.65427 3.50349 14.5993 3.50349ZM10.001 8.26166C9.83707 8.26643 9.6759 8.30477 9.52754 8.37429C9.37918 8.44381 9.24682 8.54302 9.13871 8.66572C8.85024 8.99021 8.00051 9.78272 8.00051 11.3553C8.00051 12.9418 9.1638 14.4629 9.30803 14.6844C9.49146 14.906 11.6064 18.1556 14.8611 19.5331C15.6309 19.8841 16.2329 20.0791 16.7032 20.2226C17.473 20.4691 18.1785 20.4301 18.7413 20.3521C19.3684 20.2616 20.6477 19.5721 20.9221 18.8186C21.1965 18.0651 21.1965 17.427 21.1181 17.285C21.0271 17.154 20.8186 17.076 20.491 16.9325C20.1649 16.7515 18.5704 15.9715 18.2835 15.8669C17.9825 15.7624 17.8007 15.7109 17.5514 16.023C17.3429 16.3474 16.7158 17.076 16.5323 17.285C16.3364 17.505 16.1529 17.5315 15.8409 17.3755C15.5007 17.207 14.455 16.8685 13.2275 15.7765C12.2601 14.9184 11.6205 13.8654 11.4245 13.5393C11.2677 13.2273 11.4104 13.0323 11.5672 12.8904C11.7452 12.714 11.9074 12.5224 12.0516 12.3178C12.221 12.1353 12.2743 11.9933 12.3777 11.7858C12.4828 11.5643 12.431 11.3818 12.3526 11.2258C12.2743 11.0838 11.6205 9.47071 11.3461 8.83421C11.0843 8.21018 10.8241 8.28819 10.614 8.27571C10.4306 8.27571 10.222 8.26166 10.001 8.26166Z" fill="black"/>
</svg>
