<svg width="64" height="64" viewBox="0 0 64 64" fill="none" xmlns="http://www.w3.org/2000/svg">
<g clip-path="url(#clip0_2374_675)">
<path d="M32 64C49.6731 64 64 49.6731 64 32C64 14.3269 49.6731 0 32 0C14.3269 0 0 14.3269 0 32C0 49.6731 14.3269 64 32 64Z" fill="#60D669"/>
<path d="M11.1587 31.8144C11.1577 35.4825 12.1161 39.0642 13.9386 42.2211L10.9844 53.0074L22.0228 50.1131C25.0758 51.7752 28.4966 52.646 31.9727 52.6463H31.9819C43.4574 52.6463 52.7987 43.3083 52.8036 31.8308C52.8058 26.2692 50.6418 21.0393 46.7102 17.1047C42.7793 13.1704 37.5513 11.0025 31.981 11C20.5042 11 11.1636 20.3374 11.1588 31.8144" fill="url(#paint0_linear_2374_675)"/>
<path d="M10.4159 31.8071C10.4147 35.6072 11.4075 39.317 13.295 42.5869L10.2349 53.7598L21.6691 50.7618C24.8195 52.4795 28.3667 53.3852 31.9761 53.3865H31.9854C43.8726 53.3865 53.5494 43.7127 53.5545 31.8244C53.5565 26.0628 51.3148 20.645 47.2427 16.5694C43.1702 12.4943 37.7552 10.2485 31.9854 10.2461C20.0962 10.2461 10.4207 19.9186 10.4159 31.8071ZM17.2254 42.0238L16.7985 41.3461C15.0037 38.4924 14.0565 35.1947 14.0578 31.8085C14.0615 21.927 22.1034 13.8877 31.9922 13.8877C36.781 13.8897 41.2815 15.7565 44.6665 19.1435C48.0514 22.5309 49.914 27.0338 49.9128 31.823C49.9084 41.7045 41.8663 49.7448 31.9854 49.7448H31.9783C28.761 49.7431 25.6056 48.8791 22.8537 47.2463L22.1989 46.858L15.4136 48.637L17.2254 42.0238Z" fill="url(#paint1_linear_2374_675)"/>
<path d="M26.5953 22.7938C26.1916 21.8965 25.7667 21.8784 25.3827 21.8626C25.0683 21.8491 24.7089 21.8501 24.3498 21.8501C23.9904 21.8501 23.4064 21.9853 22.9128 22.5243C22.4187 23.0637 21.0264 24.3674 21.0264 27.0189C21.0264 29.6705 22.9576 32.233 23.2269 32.5929C23.4964 32.9521 26.9552 38.5674 32.4331 40.7277C36.9858 42.5229 37.9122 42.1658 38.9003 42.0758C39.8885 41.9861 42.089 40.7725 42.538 39.514C42.9872 38.2557 42.9872 37.1772 42.8525 36.9518C42.7178 36.7272 42.3584 36.5923 41.8195 36.3229C41.2803 36.0534 38.6307 34.7496 38.1368 34.5697C37.6427 34.39 37.2834 34.3003 36.924 34.8399C36.5646 35.3787 35.5325 36.5923 35.218 36.9518C34.9037 37.312 34.5891 37.3569 34.0504 37.0873C33.5111 36.8169 31.7754 36.2485 29.7162 34.4126C28.114 32.9841 27.0324 31.22 26.718 30.6804C26.4036 30.1416 26.6843 29.8495 26.9546 29.581C27.1967 29.3395 27.4937 28.9517 27.7634 28.6371C28.0321 28.3223 28.1218 28.0978 28.3015 27.7384C28.4814 27.3786 28.3914 27.0639 28.2569 26.7943C28.1218 26.5247 27.0745 23.8594 26.5953 22.7938Z" fill="white"/>
</g>
<defs>
<linearGradient id="paint0_linear_2374_675" x1="2101.94" y1="4211.74" x2="2101.94" y2="11" gradientUnits="userSpaceOnUse">
<stop stop-color="#1FAF38"/>
<stop offset="1" stop-color="#60D669"/>
</linearGradient>
<linearGradient id="paint1_linear_2374_675" x1="2176.22" y1="4361.62" x2="2176.22" y2="10.2461" gradientUnits="userSpaceOnUse">
<stop stop-color="#F9F9F9"/>
<stop offset="1" stop-color="white"/>
</linearGradient>
<clipPath id="clip0_2374_675">
<rect width="64" height="64" fill="white"/>
</clipPath>
</defs>
</svg>
